<?xml version="1.0" encoding="utf-8"?>
<!-- Generator: Adobe Illustrator 27.0.0, SVG Export Plug-In . SVG Version: 6.00 Build 0)  -->
<svg version="1.1" id="Layer_1" xmlns="http://www.w3.org/2000/svg" xmlns:xlink="http://www.w3.org/1999/xlink" x="0px" y="0px"
	 viewBox="0 0 260.8 104" style="enable-background:new 0 0 260.8 104;" xml:space="preserve">
<style type="text/css">
	.st0{fill:#F1634C;}
	.st1{fill:#470D33;}
	.st2{fill:#8D3746;}
	.st3{fill:#BA4D4B;}
	.st4{fill:#67203B;}
</style>
<circle class="st0" cx="247.4" cy="66.2" r="5.6"/>
<circle class="st1" cx="13.6" cy="37" r="5.6"/>
<path class="st0" d="M58.4,32.3c0.2-0.4,0.4-0.8,0.9-0.8h5.3c0.4,0,0.8,0.3,0.8,0.9v38.4c0,0.5-0.3,0.9-0.9,0.9H60
	c-0.5,0-0.8-0.3-0.9-0.8l-1.9-5.7c-2.9,4.3-7.6,6.8-13.7,6.8C31.6,72,23.6,63.6,23.6,51.3c0-12.3,8-20.5,19.9-20.6
	c6.1,0,10.7,2.5,13.7,6.8L58.4,32.3z M44.1,63.7c7.4,0,12.4-4.9,12.5-12.4c-0.2-7.4-5.2-12.3-12.5-12.3S31.8,44,31.8,51.3
	C31.8,58.6,36.8,63.7,44.1,63.7z"/>
<path class="st2" d="M152.6,32.3c0.2-0.4,0.4-0.8,0.9-0.8h5.3c0.4,0,0.8,0.3,0.8,0.9v38.4c0,0.5-0.3,0.9-0.9,0.9h-4.6
	c-0.5,0-0.8-0.3-0.9-0.8l-1.9-5.7c-2.9,4.3-7.6,6.8-13.7,6.8c-11.9,0.1-19.9-8.3-19.9-20.6c0-12.3,8-20.5,19.9-20.6
	c6.1,0,10.7,2.5,13.7,6.8L152.6,32.3z M138.3,63.7c7.4,0,12.4-4.9,12.5-12.4c-0.2-7.4-5.2-12.3-12.5-12.3S126,44,126,51.3
	C126,58.6,131,63.7,138.3,63.7z"/>
<path class="st3" d="M70.9,51.3c0-12.3,8-20.6,19.9-20.6c5.8,0,10.3,2.3,13.1,6.3V9.1c0-0.5,0.4-0.8,0.9-0.8h6.7
	c0.5,0,0.9,0.3,0.9,0.8v61.7c0,0.6-0.3,0.9-0.9,0.9h-4.2c-0.5,0-0.9-0.3-0.9-0.8l-1.8-5.7C101.7,69.5,97,72,90.9,72
	C78.9,72,70.9,63.6,70.9,51.3z M91.5,39c-7.3,0-12.2,5-12.2,12.4c0,7.3,4.9,12.4,12.2,12.4S104,58.8,104,51.3
	C104,44,98.8,39,91.5,39z"/>
<path class="st4" d="M166.2,93.8V32.4c0-0.5,0.3-0.9,0.9-0.9h4.4c0.6,0,0.9,0.3,1.1,0.9l1.3,5.2c2.9-4.4,7.6-7,13.8-7
	c11.9,0,19.9,8.4,19.9,20.7c0,12.3-8,20.7-19.9,20.7c-5.8,0-10.4-2.3-13.2-6.3l-0.2,28c0,0.5-0.3,0.9-0.9,0.9H167
	C166.5,94.7,166.2,94.3,166.2,93.8z M187.1,63.7c7.4,0,12.3-5,12.3-12.4c0-7.4-4.9-12.4-12.3-12.4c-7.3,0-12.5,5-12.5,12.4
	C174.7,58.7,179.8,63.7,187.1,63.7z"/>
<path class="st1" d="M227.8,63.5c1.4,0,2.9-1,3.6-1.5c0.2-0.2,0.3-0.2,0.5-0.2c0.3,0,0.5,0.2,0.7,0.3l2.6,5.7c0.3,0.5,0.2,1-0.3,1.3
	c-2.4,1.9-5.4,2.8-8.4,2.8c-7,0-10.9-5.1-10.8-13.9V39.2h-5.8c-0.5,0-0.9-0.3-0.9-0.9v-6c0-0.4,0.3-0.8,0.9-0.8h5.8l0.1-12.8
	c0-0.5,0.3-0.9,0.8-0.9h6.6c0.5,0,0.9,0.3,0.9,0.9v12.8h8.8c0.5,0,0.9,0.3,0.9,0.8v6c0,0.5-0.3,0.9-0.9,0.9H224v15.3
	C224,61.4,225,63.5,227.8,63.5z"/>
</svg>
